<svg width="58px" height="58px" xmlns="http://www.w3.org/2000/svg" viewBox="0 0 181.96 181.96"><title>logo</title><g id="Layer_2" data-name="Layer 2"><g id="Layer_1-2" data-name="Layer 1"><path d="M91,29.19A61.79,61.79,0,1,0,152.77,91,61.79,61.79,0,0,0,91,29.19Zm-.06,11.52A12.65,12.65,0,1,1,78.38,53.49,12.72,12.72,0,0,1,90.92,40.71Zm39,34.41a65.87,65.87,0,0,1-8.41,1.13c-5.2.37-10.41.56-15.62.84-.7,0-1.41.13-2.11.24-2.79.43-4.44,1.79-4.59,4.58a76.34,76.34,0,0,0,.19,10.8A176.5,176.5,0,0,0,109,135.56a5.75,5.75,0,0,1,.37,1.18c.16,1.23.89,2.6-.56,3.55-1.88,1.22-3.83,1.37-5.07-.06a14.83,14.83,0,0,1-3-5.1c-2.2-7.37-4.12-14.81-6.17-22.22a29,29,0,0,0-1.44-4.55A2.6,2.6,0,0,0,91.14,107a3,3,0,0,0-2,1.57,23.74,23.74,0,0,0-1,3.92c-2,7.31-3.91,14.62-6,21.89a20.15,20.15,0,0,1-2.44,4.89,4,4,0,0,1-2,1.56c-3.44,1.12-5.44-.73-4.52-4.24,2.07-7.83,4.36-15.6,6.31-23.47a133.85,133.85,0,0,0,4.17-27.15,33.18,33.18,0,0,0-.06-3.73c-.2-2.68-1.51-4.18-4.19-4.43-4-.36-7.92-.43-11.87-.76q-6.82-.57-13.61-1.38c-1.79-.21-3.54-.78-4.13-2.82-.72-2.51.87-4.25,3.77-4.28,4.63.38,9.17.77,13.72,1.13a257.15,257.15,0,0,0,41.35.37c6.26-.51,12.51-1,18.77-1.52a8.06,8.06,0,0,1,2.28.25,3.24,3.24,0,0,1,2.87,3.14A2.94,2.94,0,0,1,130,75.12Z" fill="#015289"/><path d="M91,14A77,77,0,1,1,14,91,77.07,77.07,0,0,1,91,14M91,0a91,91,0,1,0,91,91A91,91,0,0,0,91,0Z" fill="#015289"/></g></g></svg>