<svg xmlns="http://www.w3.org/2000/svg" viewBox="0 0 504.88 948.36"><defs><clipPath id="a"><circle cx="237.6" cy="472.2" r="59.1" transform="rotate(-25.24 237.64 472.168)" fill="#414042" stroke="#fff" stroke-linejoin="bevel" stroke-width="5"/></clipPath></defs><title>mockup-2-markup-mobile</title><g data-name="Layer 1" style="isolation:isolate"><path fill="#f5f5f5" d="M0 3h505v944.3H0z"/><path d="M271.2 1S315.6 61.7 286 174s-43.6 292 10 436.5 54.5 228.4-58.4 336.6" fill="none" stroke="#231f20" stroke-miterlimit="10" stroke-width="3" opacity=".2"/><g opacity=".2" style="mix-blend-mode:multiply" fill="#231f20"><path d="M85 604.8h343.5v240H85zM85 578.8h343.5v26H85z"/></g><path fill="#353238" d="M82 599.2h343.7v240H82z"/><path fill="#e6e7e8" d="M82 573.2h343.7v26H82z"/><circle cx="98.2" cy="586.2" r="3.5" fill="#bd4e4e"/><circle cx="108.3" cy="586.2" r="3.5" fill="#e2b652"/><circle cx="119" cy="586.2" r="3.5" fill="#8ec85d"/><path fill="#ebdec7" d="M95.6 608.2H234v5.5H95.5zM95.6 826.7H234v5.5H95.5z"/><path fill="#d54f28" d="M106.5 620.2h138.3v5.5H106.5z"/><path fill="#488f84" d="M127 644.2h138.3v5.5H127zM127 704.4h138.3v5.5H127z"/><path fill="#ebdec7" d="M152 716.4h200.6v5.5H152zM152 728.3h200.6v5.5H152zM152 740.5h200.6v5.5H152zM152 752.8h200.6v5.5H152zM152 767h200.6v5.4H152zM133.6 656.2h200.7v5.5H133.6zM133.6 668.2h200.7v5.5H133.6zM133.6 680.3h200.7v5.5H133.6zM133.6 692.3h200.7v5.5H133.6z"/><path fill="#488f84" d="M127 785.2h138.3v5.5H127z"/><path fill="#f3de84" d="M117 632.2h179v5.5H117zM117 799.7h179v5.5H117z"/><path fill="#d54f28" d="M106.5 813.2h138.3v5.5H106.5z"/><path d="M218.2 873.2h4.7v8h7v-8h4.8v21H230v-8.8h-7v8.7H218zM243.8 877.2H238v-4h16.2v4h-5.7v17h-4.7zM257.5 873.2h5l3.5 9.4 1.2 3.6 1.4-3.6 3.4-9.4h5v21h-4.4v-7.8c0-2 .4-5 .6-7h-.2l-1.7 4.7-3.2 8.2h-1.8l-3.2-8-1.7-5c0 2 .5 5.2.5 7.2v7.7h-4.3zM281.8 873.2h4.8v17h8.2v4h-13zM138.7 355h6c6.3 0 10.4 3 10.4 10.2s-4 10.5-10 10.5h-6.3zm5.6 17c3.5 0 6-1.8 6-6.8s-2.5-6.5-6-6.5h-1V372zM165.2 359.5c4.5 0 6.7 3.3 6.7 7.6a9.3 9.3 0 0 1-.3 2h-9.5a3.8 3.8 0 0 0 4.2 3.6 6.4 6.4 0 0 0 3.4-1l1.6 2.8a10.4 10.4 0 0 1-5.7 1.8c-4.5 0-8-3-8-8.4s3.7-8.3 7.5-8.3zm2.7 6.7c0-1.8-.8-3-2.7-3-1.5 0-2.8 1-3 3zM176 371a6.8 6.8 0 0 0 4 1.7c1.4 0 2-.5 2-1.4 0-1-1.6-1.5-3.2-2.2-2-.6-4.2-2-4.2-4.5 0-3 2.4-5 6-5a9 9 0 0 1 5.7 2l-2 2.8a5.8 5.8 0 0 0-3.5-1.3c-1.2 0-1.8.5-1.8 1.3 0 1 1.5 1.4 3 2 2 .7 4.4 1.8 4.4 4.7s-2.3 5-6.5 5a10.2 10.2 0 0 1-6.2-2zM189 355a2.7 2.7 0 1 1 2.7 2.5 2.5 2.5 0 0 1-2.7-2.4zm.4 5h4.7v15.7h-4.6zM199.5 375.3v-.2a3 3 0 0 1-1.5-2.6 3.8 3.8 0 0 1 1.8-3 5 5 0 0 1-2-4.2c0-3.8 3-5.7 6.4-5.7a7.4 7.4 0 0 1 2.5.3h5.8v3.5H210a4.2 4.2 0 0 1 .5 2c0 3.7-2.8 5.4-6.3 5.4a6.3 6.3 0 0 1-2-.3 1.4 1.4 0 0 0-.5 1c0 1 .7 1.3 2.4 1.3h2.7c4 0 6 1.2 6 4 0 3.3-3.4 5.7-9 5.7-3.6 0-6.5-1.2-6.5-4 0-1.3.8-2.3 2.3-3zm5 4.3c2.2 0 3.8-1 3.8-2s-1-1.3-2.5-1.3h-1.6a9.2 9.2 0 0 1-2.2-.2 2 2 0 0 0-1 1.7c0 1.2 1.5 2 3.6 2zm2-14.4c0-1.6-1-2.5-2.3-2.5s-2.2.8-2.2 2.5 1 2.7 2.2 2.7 2.2-1 2.2-2.8zM215.3 360h3.8l.4 2h.2a7.3 7.3 0 0 1 5-2.5c3.5 0 5 2.4 5 6.4v9.7H225v-9.2c0-2.3-.7-3-2-3a4 4 0 0 0-3 1.5v10.7h-4.7zM240.6 355h5l3.5 9.3 1.3 3.6h.2l1.2-3.7 3.4-9.4h5v20.7h-4.3V368c0-2 .4-5 .6-7l-1.8 4.8-3.3 8h-1.8l-3.2-8-1.7-4.8h-.2c.3 2 .7 5 .7 7v7.8h-4.4zM271.4 359.5c4 0 7.7 3 7.7 8.3s-3.6 8.3-7.6 8.3-7.7-3-7.7-8.2 3.7-8.3 7.7-8.3zm0 12.8c2 0 3-1.7 3-4.5s-1-4.5-3-4.5-3 1.8-3 4.5 1 4.5 3 4.5zM289.7 359.5a6.4 6.4 0 0 1 4.6 1.8l-2 3a3.4 3.4 0 0 0-2.3-1c-2.3 0-3.7 1.8-3.7 4.5s1.5 4.5 3.5 4.5a4.6 4.6 0 0 0 3-1l1.8 3a8.2 8.2 0 0 1-5.3 2c-4.4 0-8-3-8-8.5a8 8 0 0 1 8.4-8.3zM297.3 353.3h4.6v13l5-6.4h5l-5.4 6.4 6 9.3h-5l-3.7-6-2 2v4h-4.7zM314 360h4.8v9c0 2.4.6 3 2 3 1.2 0 2-.4 2.8-1.6V360h4.7v15.7h-3.8l-.4-2.2a6.2 6.2 0 0 1-5 2.6c-3.5 0-5-2.3-5-6.3zM337 377v4.6h-4.6V360h4l.2 1.4a7 7 0 0 1 4.6-2c4 0 6.3 3.2 6.3 8 0 5.5-3.3 8.7-6.7 8.7a5.5 5.5 0 0 1-3.8-1.6zm2.7-4.7c1.6 0 3-1.4 3-4.7 0-2.8-1-4.3-2.8-4.3a3.7 3.7 0 0 0-3 1.5v6.5a3.6 3.6 0 0 0 2.7 1z" fill="#353238"/><g opacity=".2" style="mix-blend-mode:multiply" fill="#231f20"><path d="M83.3 59.6l342.8-1 1 265-343 1z"/><path d="M425.5 59l.8 264-341.7 1-1-264 342-1m1-1l-344 1 1 266 343.8-1-1-266z"/></g><path fill="#fff" d="M80.4 54l342.8-1.2.8 265-342.8 1z"/><path d="M422.7 53.4l.8 264-341.8 1-.8-264 341.7-1m1-1L80 53.4l.7 266 343.8-1-.8-266z" fill="#e6e7e8"/><path fill="#8bc349" d="M89 62.7l325.4-1v26.7L89 89.4z"/><path fill="#58595b" d="M89 270H414v41H89z"/><path fill="#e6e7e8" d="M88.8 99h325.4v93.5H88.8z"/><path fill="#f1f2f2" d="M108.6 134.3h284v78h-284z"/><path fill="#f1f2f2" stroke="#a7a9ac" stroke-miterlimit="10" d="M90.5 225.6l101-.4.2 39-101 .4z"/><path fill="#f1f2f2" stroke="#a7a9ac" stroke-miterlimit="10" d="M191.6 225.2l223.3-.7v39l-223.3.7z"/><path fill="#fff" d="M229 72.2h43.4v7.2H229z"/><path fill="#8bc349" d="M124.3 148.6l90.3-.3v7.3l-90.3.3z"/><path fill="#488fcc" d="M124.5 178.2l54-.2v16.7l-54 .2z"/><path fill="#fff" opacity=".5" d="M282.6 73.8l43.3-.2V77l-43.4.2zM337 74.6H380V78H337zM176.7 74.6H220V78h-43.3z"/><path fill="#939598" d="M124 162.3h108v3.3H124zM124.4 169.3l86.5-.2v2.5l-86.6.2z"/><path fill="#fff" opacity=".5" d="M124 74.7H167V78H124zM103 278l141.6-.4v3.4l-141.5.4zM103 288.4l141.6-.4v3.4l-141.5.4zM103 299l141.6-.5v3.4l-141.5.3zM259 277.5l141.4-.4v3.5L259 281zM259 288l141.4-.5v3.4l-141.5.3zM259 298.4l141.4-.4v3.4l-141.5.4z"/><path fill="#fff" d="M135 184.8h32.7v3.3l-32.6.2z"/><circle cx="237.6" cy="472.2" r="59.1" transform="rotate(-25.24 237.64 472.168)" fill="#414042"/><g clip-path="url(#a)" fill="none" stroke="#fff" stroke-linecap="round" stroke-linejoin="round" stroke-width="4"><path d="M249.7 475.5l-13 20-11.3-19.6M141.6 325c54.2.6 97 76.2 95.7 168.8"/></g><circle cx="237.6" cy="472.2" r="59.1" transform="rotate(-25.24 237.64 472.168)" fill="none" stroke="#fff" stroke-linejoin="bevel" stroke-width="5"/></g></svg>