<svg id="Layer_1" xmlns="http://www.w3.org/2000/svg" xmlns:xlink="http://www.w3.org/1999/xlink" viewBox="0 0 1253.5 489"><style>.st0{fill:#F5F5F5;} .st1{opacity:0.2;fill:none;stroke:#000000;stroke-width:3;stroke-miterlimit:10;} .st2{opacity:0.19;} .st3{fill:#353238;} .st4{fill:#E6E7E8;} .st5{fill:#BD4E4E;} .st6{fill:#E2B652;} .st7{fill:#8EC85D;} .st8{fill:#EBDEC7;} .st9{fill:#D54F28;} .st10{fill:#488F84;} .st11{fill:#F3DE84;} .st12{fill:#FFFFFF;} .st13{fill:#8BC349;} .st14{fill:#58595B;} .st15{fill:#F1F2F2;} .st16{fill:#F1F2F2;stroke:#A7A9AC;stroke-miterlimit:10;} .st17{fill:#488FCC;} .st18{opacity:0.5;fill:#FFFFFF;} .st19{fill:#939598;} .st20{clip-path:url(#SVGID_2_);} .st21{fill:none;stroke:#FFFFFF;stroke-width:4;stroke-linecap:round;stroke-linejoin:round;stroke-miterlimit:10;}</style><path class="st0" d="M0 0h1253.5v489H0z"/><path class="st1" d="M0 215.8s57-49.3 171.5-29 294.7 19.6 434.2-45.7 530.7 35.3 647.8 139"/><g class="st2"><path d="M675.3 120.7H1019v240H675.2zM675.3 94.7H1019v26H675.2z"/></g><path class="st3" d="M672.5 115H1016v240H672.6z"/><path class="st4" d="M672.5 89H1016v26H672.6z"/><circle class="st5" cx="688.6" cy="102.1" r="3.5"/><circle class="st6" cx="698.7" cy="102.1" r="3.5"/><circle class="st7" cx="709.4" cy="102.1" r="3.5"/><path class="st8" d="M686 124h138.3v5.6H686zM686 342.6h138.3v5.5H686z"/><path class="st9" d="M697 136H835v5.6H697z"/><path class="st10" d="M717.4 160h138.3v5.6H717.4zM717.4 220.3h138.3v5.5H717.4z"/><path class="st8" d="M742.3 232.3H943v5.5H742.3zM742.3 244.2H943v5.5H742.3zM742.3 256.4H943v5.5H742.3zM742.3 268.7H943v5.5H742.3zM742.3 282.8H943v5.5H742.3zM724 172h200.7v5.6H724zM724 184h200.7v5.6H724zM724 196.2h200.7v5.5H724zM724 208.2h200.7v5.5H724z"/><path class="st10" d="M717.4 301h138.3v5.6H717.4z"/><path class="st11" d="M707.3 148h179v5.6h-179zM707.3 315.6h179v5.5h-179z"/><path class="st9" d="M697 329H835v5.6H697z"/><g><path class="st3" d="M321.5 389h6c6.3 0 10.4 3.3 10.4 10.4 0 7.2-4.2 10.5-10.3 10.5h-6.2v-21zm5.6 17.2c3.6 0 6-1.7 6-6.7s-2.4-6.5-6-6.5h-.8v13.2h1zM348 393.7c4.5 0 6.8 3.3 6.8 7.6 0 .8 0 1.6-.2 2H345c.4 2.4 2 3.5 4 3.5 1.3 0 2.4-.4 3.5-1l1.6 2.7c-1.5 1-3.6 1.8-5.5 1.8-4.5 0-8-3-8-8.3 0-5 3.7-8.3 7.5-8.3zm2.7 6.7c0-1.8-.8-3-2.7-3-1.5 0-2.8 1-3 3h5.7zM358.7 405.2c1.4 1 2.8 1.7 4 1.7 1.5 0 2-.6 2-1.4 0-1-1.5-1.5-3-2.2-2-.7-4.3-2-4.3-4.7 0-3 2.4-5 6-5 2.5 0 4.3 1 5.7 2l-2 2.8c-1.2-.8-2.2-1.3-3.4-1.3-1.2 0-1.8.4-1.8 1.2 0 1 1.5 1.4 3 2 2 .7 4.4 2 4.4 4.8 0 3-2.3 5-6.5 5-2 0-4.5-.8-6-2l2-3zM371.8 389.3c0-1.4 1.2-2.4 2.7-2.4 1.6 0 2.7 1 2.7 2.3 0 1.4-1 2.5-2.7 2.5-1.6 0-2.7-1-2.7-2.5zm.4 4.8h4.7v16H372v-16zM382.3 409.5c-.8-.6-1.5-1.5-1.5-2.8 0-1.2.8-2.3 1.8-3-1-1-2-2.4-2-4.2 0-3.8 3-5.7 6.5-5.7 1 0 2 0 2.6.4h5.8v3.4H393c.2.5.4 1.2.4 2 0 3.7-2.8 5.4-6.2 5.4-.6 0-1.2 0-2-.3-.3.4-.5.6-.5 1.2 0 .7.6 1 2.4 1h2.7c4 0 6 1.3 6 4 0 3.4-3.4 5.8-9 5.8-3.6 0-6.6-1.2-6.6-4 0-1.4.8-2.5 2.3-3.3zm5 4.3c2.2 0 3.7-1 3.7-2s-1-1.2-2.4-1.2H387c-1 0-1.7 0-2.2-.2-.6.5-1 1-1 1.6 0 1 1.5 1.8 3.6 1.8zm2-14.4c0-1.7-1-2.6-2.3-2.6-1.2 0-2.2 1-2.2 2.6 0 1.8 1 2.7 2.2 2.7 1.3 0 2.2-.8 2.2-2.6zM398 394h4l.2 2c1.4-1.2 3-2.3 5.2-2.3 3.5 0 5 2.4 5 6.4v10h-4.8v-9.2c0-2.3-.6-3-2-3-1.2 0-2 .5-3 1.5V410H398v-16zM423.4 389h5l3.5 9.5 1 3.6h.2l1.2-3.5 3.4-9.4h5v21h-4.4v-7.6c0-2 .4-5 .6-7l-1.7 4.7-3.2 8.2h-1.8l-3.2-8-1.7-5c0 2 .5 5.2.5 7.2v7.6h-4.4v-21zM454.2 393.7c4 0 7.7 3 7.7 8.3s-3.8 8.3-7.8 8.3-7.7-3-7.7-8.3 3.7-8.3 7.7-8.3zm0 12.8c2 0 3-1.8 3-4.5s-1-4.5-3-4.5-3 1.8-3 4.5 1 4.5 3 4.5zM472.5 393.7c2 0 3.6.7 4.6 1.8l-2 3c-.8-.7-1.5-1-2.2-1-2.3 0-3.7 1.8-3.7 4.5s1.6 4.5 3.7 4.5c1.2 0 2-.5 2.8-1.2l2 3c-1.6 1.3-3.7 2-5.4 2-4.3 0-7.7-3-7.7-8.3s3.8-8.3 8.2-8.3zM480 387.5h4.7v13l5-6.4h5.2l-5.7 6.6 6 9.3h-5l-3.7-6.3-2 2.3v4H480v-22.5zM497.5 394h4.7v9.3c0 2.3.6 3 2 3 1.2 0 2-.5 2.8-1.8V394h4.7v16H508l-.5-2.2c-1.4 1.6-3 2.6-5 2.6-3.6 0-5-2.4-5-6.4v-10zM520.5 411.2v4.6h-4.7V394h3.8l.3 1.6c1.2-1 2.8-2 4.5-2 3.8 0 6.2 3.2 6.2 8 0 5.5-3.3 8.7-6.7 8.7-1.4 0-2.7-.6-3.8-1.7l.3 2.6zm2.5-4.7c1.6 0 3-1.4 3-4.7 0-2.8-1-4.3-3-4.3-1 0-1.7.4-2.6 1.4v6.4c1 1 1.8 1 2.6 1z"/></g><g><path class="st3" d="M808.6 389h4.7v8h7.2v-8h4.7v21h-4.7v-8.7h-7.2v8.7h-4.7v-21zM834.2 393h-5.8v-4h16.2v4H839v17H834v-17zM848 389h5l3.4 9.5 1.2 3.6 1.3-3.5 3.3-9.4h5v21H863v-7.6c0-2 .3-5 .5-7l-1.8 4.7-3.2 8.2h-2l-3-8-1.8-5c0 2 .5 5.2.5 7.2v7.6h-4.4v-21zM872.2 389h4.7v17h8v4h-13v-21z"/></g><g><g class="st2"><path d="M266.6 93.8l342.8-1 .8 265-342.8 1z"/><path d="M609 93.3l.7 264-341.8 1-1-264 342-1m1-1l-344 1 1 266 343.7-1-.8-266z"/></g><path class="st12" d="M263.8 88l342.8-1 .8 265-342.8 1z"/><path class="st4" d="M606 87.6l1 264-342 1-.7-264 341.8-1m1-1l-343.7 1 .8 266 344-1-1-266z"/><path class="st13" d="M272.5 97l325.3-1v26.6l-325.3 1z"/><path class="st14" d="M273 303.8l325.3-1 .2 41-325.3 1z"/><path class="st4" d="M272.6 133l325.3-1v93.3l-325.2 1z"/><path class="st15" d="M292.3 168.2l284-.8v78l-283.8.8z"/><path class="st16" d="M274 259.8l101-.4v39l-101 .4zM375 259.4l223.2-.6.2 39-223.3.6z"/><path class="st12" d="M412.5 106.5l43.3-.2v7.3l-43.3.2z"/><path class="st13" d="M307.7 182.8l90.4-.2v7.3h-90.3z"/><path class="st17" d="M307.8 212.4l54-.2V229h-54z"/><path class="st18" d="M466 108l43.3-.2v3.4l-43.3.2zM520.5 107.8l43.3-.2v3.4l-43.3.2zM360.2 108.3l43.3-.2v3.5l-43.3.2z"/><path class="st19" d="M307.8 196l108-.3v3.4l-108 .5zM307.8 203.6l86.5-.2v2.4l-86.5.2z"/><path class="st18" d="M307.5 108.5l43.3-.2v3.4l-43.3.2zM286.4 312.2l141.5-.4v3.4l-141.6.4zM286.5 322.6l141.5-.4v3.4l-141.5.4zM286.5 333l141.5-.3v3.4l-141.5.5zM442.3 311.7l141.5-.4v3.4l-141.5.4zM442.3 322.2l141.5-.4v3.4l-141.5.4zM442.3 332.6l141.5-.4v3.4l-141.5.4z"/><path class="st12" d="M318.5 219H351v3.4h-32.5z"/></g><g><defs><circle id="SVGID_1_" cx="637.8" cy="228.9" r="59.1"/></defs><use xlink:href="#SVGID_1_" overflow="visible" fill="#414042"/><clipPath id="SVGID_2_"><use xlink:href="#SVGID_1_" overflow="visible"/></clipPath><g class="st20"><path class="st21" d="M646 219.4l12.6 20.2-22.6 2M463.7 253c23.8-48.7 110.4-55.2 193.6-14.5"/></g><use xlink:href="#SVGID_1_" overflow="visible" fill="none" stroke="#FFF" stroke-width="5" stroke-linejoin="bevel" stroke-miterlimit="10"/></g></svg>